<?xml version="1.0" encoding="UTF-8" standalone="no"?>
<!DOCTYPE svg PUBLIC "-//W3C//DTD SVG 1.1//EN"
 "http://www.w3.org/Graphics/SVG/1.1/DTD/svg11.dtd">
<!-- Generated by graphviz version 2.40.1 (20161225.0304)
 -->
<!-- Title: snakemake_dag Pages: 1 -->
<svg width="1638pt" height="764pt"
 viewBox="0.00 0.00 1638.42 764.00" xmlns="http://www.w3.org/2000/svg" xmlns:xlink="http://www.w3.org/1999/xlink">
<g id="graph0" class="graph" transform="scale(1 1) rotate(0) translate(4 760)">
<title>snakemake_dag</title>
<polygon fill="#ffffff" stroke="transparent" points="-4,4 -4,-760 1634.4219,-760 1634.4219,4 -4,4"/>
<!-- 0 -->
<g id="node1" class="node">
<title>0</title>
<path fill="none" stroke="#97d856" stroke-width="2" d="M789.1689,-36C789.1689,-36 759.1689,-36 759.1689,-36 753.1689,-36 747.1689,-30 747.1689,-24 747.1689,-24 747.1689,-12 747.1689,-12 747.1689,-6 753.1689,0 759.1689,0 759.1689,0 789.1689,0 789.1689,0 795.1689,0 801.1689,-6 801.1689,-12 801.1689,-12 801.1689,-24 801.1689,-24 801.1689,-30 795.1689,-36 789.1689,-36"/>
<text text-anchor="middle" x="774.1689" y="-15" font-family="sans" font-size="10.00" fill="#000000">evaluate</text>
</g>
<!-- 1 -->
<g id="node2" class="node">
<title>1</title>
<path fill="none" stroke="#56d89a" stroke-width="2" d="M752.068,-110C752.068,-110 646.2699,-110 646.2699,-110 640.2699,-110 634.2699,-104 634.2699,-98 634.2699,-98 634.2699,-84 634.2699,-84 634.2699,-78 640.2699,-72 646.2699,-72 646.2699,-72 752.068,-72 752.068,-72 758.068,-72 764.068,-78 764.068,-84 764.068,-84 764.068,-98 764.068,-98 764.068,-104 758.068,-110 752.068,-110"/>
<text text-anchor="middle" x="699.1689" y="-98" font-family="sans" font-size="10.00" fill="#000000">rabema_eval</text>
<text text-anchor="middle" x="699.1689" y="-88" font-family="sans" font-size="10.00" fill="#000000">category: all&#45;best</text>
<text text-anchor="middle" x="699.1689" y="-78" font-family="sans" font-size="10.00" fill="#000000">mapper: bowtie2_rabema</text>
</g>
<!-- 1&#45;&gt;0 -->
<g id="edge1" class="edge">
<title>1&#45;&gt;0</title>
<path fill="none" stroke="#c0c0c0" stroke-width="2" d="M718.8743,-71.8201C727.8467,-63.0869 738.5885,-52.6316 748.2079,-43.2688"/>
<polygon fill="#c0c0c0" stroke="#c0c0c0" stroke-width="2" points="750.9018,-45.5309 755.6266,-36.0479 746.0194,-40.5147 750.9018,-45.5309"/>
</g>
<!-- 2 -->
<g id="node3" class="node">
<title>2</title>
<path fill="none" stroke="#56d89a" stroke-width="2" d="M604.3849,-110C604.3849,-110 445.953,-110 445.953,-110 439.953,-110 433.953,-104 433.953,-98 433.953,-98 433.953,-84 433.953,-84 433.953,-78 439.953,-72 445.953,-72 445.953,-72 604.3849,-72 604.3849,-72 610.3849,-72 616.3849,-78 616.3849,-84 616.3849,-84 616.3849,-98 616.3849,-98 616.3849,-104 610.3849,-110 604.3849,-110"/>
<text text-anchor="middle" x="525.1689" y="-98" font-family="sans" font-size="10.00" fill="#000000">rabema_eval</text>
<text text-anchor="middle" x="525.1689" y="-88" font-family="sans" font-size="10.00" fill="#000000">category: all&#45;best</text>
<text text-anchor="middle" x="525.1689" y="-78" font-family="sans" font-size="10.00" fill="#000000">mapper: distyara_rabema_taxo_1024</text>
</g>
<!-- 2&#45;&gt;0 -->
<g id="edge2" class="edge">
<title>2&#45;&gt;0</title>
<path fill="none" stroke="#c0c0c0" stroke-width="2" d="M590.2655,-71.9155C637.0907,-58.1876 698.5589,-40.1668 737.22,-28.8324"/>
<polygon fill="#c0c0c0" stroke="#c0c0c0" stroke-width="2" points="738.3999,-32.1339 747.0113,-25.9619 736.4305,-25.4166 738.3999,-32.1339"/>
</g>
<!-- 3 -->
<g id="node4" class="node">
<title>3</title>
<path fill="none" stroke="#56d89a" stroke-width="2" d="M1037.5534,-110C1037.5534,-110 946.7845,-110 946.7845,-110 940.7845,-110 934.7845,-104 934.7845,-98 934.7845,-98 934.7845,-84 934.7845,-84 934.7845,-78 940.7845,-72 946.7845,-72 946.7845,-72 1037.5534,-72 1037.5534,-72 1043.5534,-72 1049.5534,-78 1049.5534,-84 1049.5534,-84 1049.5534,-98 1049.5534,-98 1049.5534,-104 1043.5534,-110 1037.5534,-110"/>
<text text-anchor="middle" x="992.1689" y="-98" font-family="sans" font-size="10.00" fill="#000000">rabema_eval</text>
<text text-anchor="middle" x="992.1689" y="-88" font-family="sans" font-size="10.00" fill="#000000">category: all&#45;best</text>
<text text-anchor="middle" x="992.1689" y="-78" font-family="sans" font-size="10.00" fill="#000000">mapper: gem_rabema</text>
</g>
<!-- 3&#45;&gt;0 -->
<g id="edge3" class="edge">
<title>3&#45;&gt;0</title>
<path fill="none" stroke="#c0c0c0" stroke-width="2" d="M935.1768,-71.9155C895.908,-58.7658 844.8764,-41.6773 810.8987,-30.2994"/>
<polygon fill="#c0c0c0" stroke="#c0c0c0" stroke-width="2" points="811.9568,-26.9628 801.3629,-27.1062 809.734,-33.6005 811.9568,-26.9628"/>
</g>
<!-- 4 -->
<g id="node5" class="node">
<title>4</title>
<path fill="none" stroke="#56d89a" stroke-width="2" d="M905.1669,-110C905.1669,-110 793.171,-110 793.171,-110 787.171,-110 781.171,-104 781.171,-98 781.171,-98 781.171,-84 781.171,-84 781.171,-78 787.171,-72 793.171,-72 793.171,-72 905.1669,-72 905.1669,-72 911.1669,-72 917.1669,-78 917.1669,-84 917.1669,-84 917.1669,-98 917.1669,-98 917.1669,-104 911.1669,-110 905.1669,-110"/>
<text text-anchor="middle" x="849.1689" y="-98" font-family="sans" font-size="10.00" fill="#000000">rabema_eval</text>
<text text-anchor="middle" x="849.1689" y="-88" font-family="sans" font-size="10.00" fill="#000000">category: all&#45;best</text>
<text text-anchor="middle" x="849.1689" y="-78" font-family="sans" font-size="10.00" fill="#000000">mapper: bwamem_rabema</text>
</g>
<!-- 4&#45;&gt;0 -->
<g id="edge4" class="edge">
<title>4&#45;&gt;0</title>
<path fill="none" stroke="#c0c0c0" stroke-width="2" d="M829.4636,-71.8201C820.4911,-63.0869 809.7494,-52.6316 800.13,-43.2688"/>
<polygon fill="#c0c0c0" stroke="#c0c0c0" stroke-width="2" points="802.3185,-40.5147 792.7113,-36.0479 797.4361,-45.5309 802.3185,-40.5147"/>
</g>
<!-- 5 -->
<g id="node6" class="node">
<title>5</title>
<path fill="none" stroke="#56d89a" stroke-width="2" d="M404.3849,-110C404.3849,-110 255.953,-110 255.953,-110 249.953,-110 243.953,-104 243.953,-98 243.953,-98 243.953,-84 243.953,-84 243.953,-78 249.953,-72 255.953,-72 255.953,-72 404.3849,-72 404.3849,-72 410.3849,-72 416.3849,-78 416.3849,-84 416.3849,-84 416.3849,-98 416.3849,-98 416.3849,-104 410.3849,-110 404.3849,-110"/>
<text text-anchor="middle" x="330.1689" y="-98" font-family="sans" font-size="10.00" fill="#000000">rabema_eval</text>
<text text-anchor="middle" x="330.1689" y="-88" font-family="sans" font-size="10.00" fill="#000000">category: all&#45;best</text>
<text text-anchor="middle" x="330.1689" y="-78" font-family="sans" font-size="10.00" fill="#000000">mapper: dyara_rabema_taxo_1024</text>
</g>
<!-- 5&#45;&gt;0 -->
<g id="edge5" class="edge">
<title>5&#45;&gt;0</title>
<path fill="none" stroke="#c0c0c0" stroke-width="2" d="M416.3512,-73.5921C419.3247,-73.0461 422.2707,-72.5138 425.1689,-72 538.3981,-51.9272 673.0476,-32.2811 736.9514,-23.2111"/>
<polygon fill="#c0c0c0" stroke="#c0c0c0" stroke-width="2" points="737.5393,-26.6629 746.9503,-21.7964 736.5586,-19.7319 737.5393,-26.6629"/>
</g>
<!-- 6 -->
<g id="node7" class="node">
<title>6</title>
<path fill="none" stroke="#56d89a" stroke-width="2" d="M1169.5534,-110C1169.5534,-110 1078.7845,-110 1078.7845,-110 1072.7845,-110 1066.7845,-104 1066.7845,-98 1066.7845,-98 1066.7845,-84 1066.7845,-84 1066.7845,-78 1072.7845,-72 1078.7845,-72 1078.7845,-72 1169.5534,-72 1169.5534,-72 1175.5534,-72 1181.5534,-78 1181.5534,-84 1181.5534,-84 1181.5534,-98 1181.5534,-98 1181.5534,-104 1175.5534,-110 1169.5534,-110"/>
<text text-anchor="middle" x="1124.1689" y="-98" font-family="sans" font-size="10.00" fill="#000000">rabema_eval</text>
<text text-anchor="middle" x="1124.1689" y="-88" font-family="sans" font-size="10.00" fill="#000000">category: all&#45;best</text>
<text text-anchor="middle" x="1124.1689" y="-78" font-family="sans" font-size="10.00" fill="#000000">mapper: yara_rabema</text>
</g>
<!-- 6&#45;&gt;0 -->
<g id="edge6" class="edge">
<title>6&#45;&gt;0</title>
<path fill="none" stroke="#c0c0c0" stroke-width="2" d="M1066.6589,-74.1052C1063.7943,-73.3702 1060.9526,-72.6638 1058.1689,-72 970.3393,-51.0552 865.6975,-32.8798 811.2492,-23.9253"/>
<polygon fill="#c0c0c0" stroke="#c0c0c0" stroke-width="2" points="811.7987,-20.4688 801.3652,-22.3106 810.6701,-27.3772 811.7987,-20.4688"/>
</g>
<!-- 7 -->
<g id="node8" class="node">
<title>7</title>
<path fill="none" stroke="#d87d56" stroke-width="2" d="M727.6898,-348C727.6898,-348 432.6481,-348 432.6481,-348 426.6481,-348 420.6481,-342 420.6481,-336 420.6481,-336 420.6481,-324 420.6481,-324 420.6481,-318 426.6481,-312 432.6481,-312 432.6481,-312 727.6898,-312 727.6898,-312 733.6898,-312 739.6898,-318 739.6898,-324 739.6898,-324 739.6898,-336 739.6898,-336 739.6898,-342 733.6898,-348 727.6898,-348"/>
<text text-anchor="middle" x="580.1689" y="-332" font-family="sans" font-size="10.00" fill="#000000">bam_sort_name</text>
<text text-anchor="middle" x="580.1689" y="-322" font-family="sans" font-size="10.00" fill="#000000">prefix: data/ABSim100K_1000.A_B_refseq_sample.bowtie2_rabema</text>
</g>
<!-- 7&#45;&gt;1 -->
<g id="edge7" class="edge">
<title>7&#45;&gt;1</title>
<path fill="none" stroke="#c0c0c0" stroke-width="2" d="M579.2117,-311.7629C578.8624,-293.1059 580.0784,-263.5908 589.1689,-240 607.7684,-191.7323 646.4314,-145.2877 672.5963,-117.4363"/>
<polygon fill="#c0c0c0" stroke="#c0c0c0" stroke-width="2" points="675.2399,-119.7358 679.6176,-110.0877 670.1787,-114.9 675.2399,-119.7358"/>
</g>
<!-- 8 -->
<g id="node9" class="node">
<title>8</title>
<path fill="none" stroke="#d85656" stroke-width="2" d="M826.9788,-204C826.9788,-204 697.3591,-204 697.3591,-204 691.3591,-204 685.3591,-198 685.3591,-192 685.3591,-192 685.3591,-158 685.3591,-158 685.3591,-152 691.3591,-146 697.3591,-146 697.3591,-146 826.9788,-146 826.9788,-146 832.9788,-146 838.9788,-152 838.9788,-158 838.9788,-158 838.9788,-192 838.9788,-192 838.9788,-198 832.9788,-204 826.9788,-204"/>
<text text-anchor="middle" x="762.1689" y="-192" font-family="sans" font-size="10.00" fill="#000000">rabema_gold</text>
<text text-anchor="middle" x="762.1689" y="-182" font-family="sans" font-size="10.00" fill="#000000">errors: 5</text>
<text text-anchor="middle" x="762.1689" y="-172" font-family="sans" font-size="10.00" fill="#000000">prefix: data</text>
<text text-anchor="middle" x="762.1689" y="-162" font-family="sans" font-size="10.00" fill="#000000">reads: ABSim100K_1000</text>
<text text-anchor="middle" x="762.1689" y="-152" font-family="sans" font-size="10.00" fill="#000000">reference: A_B_refseq_sample</text>
</g>
<!-- 8&#45;&gt;1 -->
<g id="edge8" class="edge">
<title>8&#45;&gt;1</title>
<path fill="none" stroke="#c0c0c0" stroke-width="2" d="M740.1346,-145.6209C733.466,-136.7294 726.1734,-127.006 719.6135,-118.2594"/>
<polygon fill="#c0c0c0" stroke="#c0c0c0" stroke-width="2" points="722.3928,-116.1318 713.5928,-110.2318 716.7928,-120.3318 722.3928,-116.1318"/>
</g>
<!-- 8&#45;&gt;2 -->
<g id="edge9" class="edge">
<title>8&#45;&gt;2</title>
<path fill="none" stroke="#c0c0c0" stroke-width="2" d="M685.2218,-147.7276C653.8777,-136.6183 618.0924,-123.9349 588.3194,-113.3824"/>
<polygon fill="#c0c0c0" stroke="#c0c0c0" stroke-width="2" points="589.4721,-110.0777 578.8773,-110.0359 587.1336,-116.6756 589.4721,-110.0777"/>
</g>
<!-- 8&#45;&gt;3 -->
<g id="edge12" class="edge">
<title>8&#45;&gt;3</title>
<path fill="none" stroke="#c0c0c0" stroke-width="2" d="M839.0754,-146.9124C868.7471,-136.0758 902.2331,-123.8461 930.3047,-113.5939"/>
<polygon fill="#c0c0c0" stroke="#c0c0c0" stroke-width="2" points="931.8005,-116.7738 939.993,-110.0556 929.3991,-110.1986 931.8005,-116.7738"/>
</g>
<!-- 8&#45;&gt;4 -->
<g id="edge13" class="edge">
<title>8&#45;&gt;4</title>
<path fill="none" stroke="#c0c0c0" stroke-width="2" d="M792.5973,-145.6209C802.1861,-136.3627 812.7091,-126.2026 822.0514,-117.1824"/>
<polygon fill="#c0c0c0" stroke="#c0c0c0" stroke-width="2" points="824.4874,-119.6957 829.2503,-110.2318 819.6252,-114.6599 824.4874,-119.6957"/>
</g>
<!-- 8&#45;&gt;5 -->
<g id="edge15" class="edge">
<title>8&#45;&gt;5</title>
<path fill="none" stroke="#c0c0c0" stroke-width="2" d="M685.179,-160.3059C619.1899,-147.6755 521.3009,-128.8549 426.4359,-110.2433"/>
<polygon fill="#c0c0c0" stroke="#c0c0c0" stroke-width="2" points="426.8642,-106.7607 416.3772,-108.2685 425.5156,-113.6295 426.8642,-106.7607"/>
</g>
<!-- 8&#45;&gt;6 -->
<g id="edge17" class="edge">
<title>8&#45;&gt;6</title>
<path fill="none" stroke="#c0c0c0" stroke-width="2" d="M838.8391,-159.5722C896.3257,-147.6792 977.1354,-130.2747 1056.4663,-110.366"/>
<polygon fill="#c0c0c0" stroke="#c0c0c0" stroke-width="2" points="1057.7965,-113.64 1066.6351,-107.798 1056.0825,-106.8531 1057.7965,-113.64"/>
</g>
<!-- 9 -->
<g id="node10" class="node">
<title>9</title>
<path fill="none" stroke="#d87d56" stroke-width="2" d="M566.507,-193C566.507,-193 217.8309,-193 217.8309,-193 211.8309,-193 205.8309,-187 205.8309,-181 205.8309,-181 205.8309,-169 205.8309,-169 205.8309,-163 211.8309,-157 217.8309,-157 217.8309,-157 566.507,-157 566.507,-157 572.507,-157 578.507,-163 578.507,-169 578.507,-169 578.507,-181 578.507,-181 578.507,-187 572.507,-193 566.507,-193"/>
<text text-anchor="middle" x="392.1689" y="-177" font-family="sans" font-size="10.00" fill="#000000">bam_sort_name</text>
<text text-anchor="middle" x="392.1689" y="-167" font-family="sans" font-size="10.00" fill="#000000">prefix: data/ABSim100K_1000.A_B_refseq_sample.distyara_rabema_taxo_1024</text>
</g>
<!-- 9&#45;&gt;2 -->
<g id="edge10" class="edge">
<title>9&#45;&gt;2</title>
<path fill="none" stroke="#c0c0c0" stroke-width="2" d="M420.7008,-156.9799C439.8018,-144.9161 465.1878,-128.8828 486.1518,-115.6424"/>
<polygon fill="#c0c0c0" stroke="#c0c0c0" stroke-width="2" points="488.2486,-118.4578 494.8345,-110.1586 484.5106,-112.5394 488.2486,-118.4578"/>
</g>
<!-- 10 -->
<g id="node11" class="node">
<title>10</title>
<path fill="none" stroke="#d87d56" stroke-width="2" d="M1422.1752,-420C1422.1752,-420 1142.1627,-420 1142.1627,-420 1136.1627,-420 1130.1627,-414 1130.1627,-408 1130.1627,-408 1130.1627,-396 1130.1627,-396 1130.1627,-390 1136.1627,-384 1142.1627,-384 1142.1627,-384 1422.1752,-384 1422.1752,-384 1428.1752,-384 1434.1752,-390 1434.1752,-396 1434.1752,-396 1434.1752,-408 1434.1752,-408 1434.1752,-414 1428.1752,-420 1422.1752,-420"/>
<text text-anchor="middle" x="1282.1689" y="-404" font-family="sans" font-size="10.00" fill="#000000">bam_sort_name</text>
<text text-anchor="middle" x="1282.1689" y="-394" font-family="sans" font-size="10.00" fill="#000000">prefix: data/ABSim100K_1000.A_B_refseq_sample.gem_rabema</text>
</g>
<!-- 10&#45;&gt;3 -->
<g id="edge11" class="edge">
<title>10&#45;&gt;3</title>
<path fill="none" stroke="#c0c0c0" stroke-width="2" d="M1287.419,-383.8027C1295.4736,-351.9479 1307.1943,-285.1789 1279.1689,-240 1253.2721,-198.2523 1128.6464,-143.9469 1052.3876,-113.7659"/>
<polygon fill="#c0c0c0" stroke="#c0c0c0" stroke-width="2" points="1053.4671,-110.4296 1042.8798,-110.0287 1050.9062,-116.9444 1053.4671,-110.4296"/>
</g>
<!-- 11 -->
<g id="node12" class="node">
<title>11</title>
<path fill="none" stroke="#d87d56" stroke-width="2" d="M1257.7883,-276C1257.7883,-276 956.5496,-276 956.5496,-276 950.5496,-276 944.5496,-270 944.5496,-264 944.5496,-264 944.5496,-252 944.5496,-252 944.5496,-246 950.5496,-240 956.5496,-240 956.5496,-240 1257.7883,-240 1257.7883,-240 1263.7883,-240 1269.7883,-246 1269.7883,-252 1269.7883,-252 1269.7883,-264 1269.7883,-264 1269.7883,-270 1263.7883,-276 1257.7883,-276"/>
<text text-anchor="middle" x="1107.1689" y="-260" font-family="sans" font-size="10.00" fill="#000000">bam_sort_name</text>
<text text-anchor="middle" x="1107.1689" y="-250" font-family="sans" font-size="10.00" fill="#000000">prefix: data/ABSim100K_1000.A_B_refseq_sample.bwamem_rabema</text>
</g>
<!-- 11&#45;&gt;4 -->
<g id="edge14" class="edge">
<title>11&#45;&gt;4</title>
<path fill="none" stroke="#c0c0c0" stroke-width="2" d="M1079.0673,-239.8102C1032.6466,-209.7627 939.8821,-149.7175 887.4905,-115.805"/>
<polygon fill="#c0c0c0" stroke="#c0c0c0" stroke-width="2" points="889.1166,-112.6884 878.8199,-110.1927 885.3129,-118.5648 889.1166,-112.6884"/>
</g>
<!-- 12 -->
<g id="node13" class="node">
<title>12</title>
<path fill="none" stroke="#d87d56" stroke-width="2" d="M350.507,-420C350.507,-420 11.8309,-420 11.8309,-420 5.8309,-420 -.1691,-414 -.1691,-408 -.1691,-408 -.1691,-396 -.1691,-396 -.1691,-390 5.8309,-384 11.8309,-384 11.8309,-384 350.507,-384 350.507,-384 356.507,-384 362.507,-390 362.507,-396 362.507,-396 362.507,-408 362.507,-408 362.507,-414 356.507,-420 350.507,-420"/>
<text text-anchor="middle" x="181.1689" y="-404" font-family="sans" font-size="10.00" fill="#000000">bam_sort_name</text>
<text text-anchor="middle" x="181.1689" y="-394" font-family="sans" font-size="10.00" fill="#000000">prefix: data/ABSim100K_1000.A_B_refseq_sample.dyara_rabema_taxo_1024</text>
</g>
<!-- 12&#45;&gt;5 -->
<g id="edge16" class="edge">
<title>12&#45;&gt;5</title>
<path fill="none" stroke="#c0c0c0" stroke-width="2" d="M176.3427,-383.7516C165.5491,-338.5871 144.3451,-219.9067 197.1689,-146 206.8548,-132.4484 220.515,-122.225 235.423,-114.5154"/>
<polygon fill="#c0c0c0" stroke="#c0c0c0" stroke-width="2" points="237.3167,-117.4904 244.8421,-110.0327 234.3085,-111.1697 237.3167,-117.4904"/>
</g>
<!-- 13 -->
<g id="node14" class="node">
<title>13</title>
<path fill="none" stroke="#d87d56" stroke-width="2" d="M1618.1752,-348C1618.1752,-348 1338.1627,-348 1338.1627,-348 1332.1627,-348 1326.1627,-342 1326.1627,-336 1326.1627,-336 1326.1627,-324 1326.1627,-324 1326.1627,-318 1332.1627,-312 1338.1627,-312 1338.1627,-312 1618.1752,-312 1618.1752,-312 1624.1752,-312 1630.1752,-318 1630.1752,-324 1630.1752,-324 1630.1752,-336 1630.1752,-336 1630.1752,-342 1624.1752,-348 1618.1752,-348"/>
<text text-anchor="middle" x="1478.1689" y="-332" font-family="sans" font-size="10.00" fill="#000000">bam_sort_name</text>
<text text-anchor="middle" x="1478.1689" y="-322" font-family="sans" font-size="10.00" fill="#000000">prefix: data/ABSim100K_1000.A_B_refseq_sample.yara_rabema</text>
</g>
<!-- 13&#45;&gt;6 -->
<g id="edge18" class="edge">
<title>13&#45;&gt;6</title>
<path fill="none" stroke="#c0c0c0" stroke-width="2" d="M1466.8561,-311.8054C1442.9505,-274.8773 1383.5832,-190.8424 1312.1689,-146 1275.553,-123.0081 1228.937,-109.2879 1191.285,-101.3008"/>
<polygon fill="#c0c0c0" stroke="#c0c0c0" stroke-width="2" points="1191.9162,-97.8576 1181.4193,-99.2944 1190.5211,-104.7172 1191.9162,-97.8576"/>
</g>
<!-- 14 -->
<g id="node15" class="node">
<title>14</title>
<path fill="none" stroke="#d8c356" stroke-width="2" d="M762.9788,-504C762.9788,-504 633.3591,-504 633.3591,-504 627.3591,-504 621.3591,-498 621.3591,-492 621.3591,-492 621.3591,-468 621.3591,-468 621.3591,-462 627.3591,-456 633.3591,-456 633.3591,-456 762.9788,-456 762.9788,-456 768.9788,-456 774.9788,-462 774.9788,-468 774.9788,-468 774.9788,-492 774.9788,-492 774.9788,-498 768.9788,-504 762.9788,-504"/>
<text text-anchor="middle" x="698.1689" y="-492" font-family="sans" font-size="10.00" fill="#000000">bowtie2_map_se</text>
<text text-anchor="middle" x="698.1689" y="-482" font-family="sans" font-size="10.00" fill="#000000">config: rabema</text>
<text text-anchor="middle" x="698.1689" y="-472" font-family="sans" font-size="10.00" fill="#000000">reads: ABSim100K_1000</text>
<text text-anchor="middle" x="698.1689" y="-462" font-family="sans" font-size="10.00" fill="#000000">reference: A_B_refseq_sample</text>
</g>
<!-- 14&#45;&gt;7 -->
<g id="edge19" class="edge">
<title>14&#45;&gt;7</title>
<path fill="none" stroke="#c0c0c0" stroke-width="2" d="M679.2102,-455.8999C657.8375,-428.7313 623.1918,-384.69 601.057,-356.5526"/>
<polygon fill="#c0c0c0" stroke="#c0c0c0" stroke-width="2" points="603.5515,-354.0627 594.6178,-348.3671 598.0498,-358.3907 603.5515,-354.0627"/>
</g>
<!-- 15 -->
<g id="node16" class="node">
<title>15</title>
<path fill="none" stroke="#56b9d8" stroke-width="2" d="M914.6426,-276C914.6426,-276 609.6953,-276 609.6953,-276 603.6953,-276 597.6953,-270 597.6953,-264 597.6953,-264 597.6953,-252 597.6953,-252 597.6953,-246 603.6953,-240 609.6953,-240 609.6953,-240 914.6426,-240 914.6426,-240 920.6426,-240 926.6426,-246 926.6426,-252 926.6426,-252 926.6426,-264 926.6426,-264 926.6426,-270 920.6426,-276 914.6426,-276"/>
<text text-anchor="middle" x="762.1689" y="-260" font-family="sans" font-size="10.00" fill="#000000">bam_sort_coord</text>
<text text-anchor="middle" x="762.1689" y="-250" font-family="sans" font-size="10.00" fill="#000000">prefix: data/ABSim100K_1000.A_B_refseq_sample.razers3_gold_prep</text>
</g>
<!-- 15&#45;&gt;8 -->
<g id="edge20" class="edge">
<title>15&#45;&gt;8</title>
<path fill="none" stroke="#c0c0c0" stroke-width="2" d="M762.1689,-239.9902C762.1689,-232.3693 762.1689,-223.1724 762.1689,-214.1265"/>
<polygon fill="#c0c0c0" stroke="#c0c0c0" stroke-width="2" points="765.669,-214.0694 762.1689,-204.0694 758.669,-214.0695 765.669,-214.0694"/>
</g>
<!-- 16 -->
<g id="node17" class="node">
<title>16</title>
<path fill="none" stroke="#59d856" stroke-width="2" d="M515.9788,-504C515.9788,-504 386.3591,-504 386.3591,-504 380.3591,-504 374.3591,-498 374.3591,-492 374.3591,-492 374.3591,-468 374.3591,-468 374.3591,-462 380.3591,-456 386.3591,-456 386.3591,-456 515.9788,-456 515.9788,-456 521.9788,-456 527.9788,-462 527.9788,-468 527.9788,-468 527.9788,-492 527.9788,-492 527.9788,-498 521.9788,-504 515.9788,-504"/>
<text text-anchor="middle" x="451.1689" y="-492" font-family="sans" font-size="10.00" fill="#000000">dist_yara_map_se</text>
<text text-anchor="middle" x="451.1689" y="-482" font-family="sans" font-size="10.00" fill="#000000">config: rabema</text>
<text text-anchor="middle" x="451.1689" y="-472" font-family="sans" font-size="10.00" fill="#000000">limit: 1000</text>
<text text-anchor="middle" x="451.1689" y="-462" font-family="sans" font-size="10.00" fill="#000000">reference: A_B_refseq_sample</text>
</g>
<!-- 16&#45;&gt;9 -->
<g id="edge21" class="edge">
<title>16&#45;&gt;9</title>
<path fill="none" stroke="#c0c0c0" stroke-width="2" d="M442.2652,-455.5354C433.0698,-429.2976 418.9926,-386.2394 411.1689,-348 400.8947,-297.7828 395.8939,-238.1522 393.6891,-203.6351"/>
<polygon fill="#c0c0c0" stroke="#c0c0c0" stroke-width="2" points="397.1648,-203.1253 393.0684,-193.3545 390.1775,-203.5472 397.1648,-203.1253"/>
</g>
<!-- 17 -->
<g id="node18" class="node">
<title>17</title>
<path fill="none" stroke="#568ad8" stroke-width="2" d="M1314.9788,-588C1314.9788,-588 1185.3591,-588 1185.3591,-588 1179.3591,-588 1173.3591,-582 1173.3591,-576 1173.3591,-576 1173.3591,-552 1173.3591,-552 1173.3591,-546 1179.3591,-540 1185.3591,-540 1185.3591,-540 1314.9788,-540 1314.9788,-540 1320.9788,-540 1326.9788,-546 1326.9788,-552 1326.9788,-552 1326.9788,-576 1326.9788,-576 1326.9788,-582 1320.9788,-588 1314.9788,-588"/>
<text text-anchor="middle" x="1250.1689" y="-576" font-family="sans" font-size="10.00" fill="#000000">gem_map_se</text>
<text text-anchor="middle" x="1250.1689" y="-566" font-family="sans" font-size="10.00" fill="#000000">config: rabema</text>
<text text-anchor="middle" x="1250.1689" y="-556" font-family="sans" font-size="10.00" fill="#000000">limit: 1000</text>
<text text-anchor="middle" x="1250.1689" y="-546" font-family="sans" font-size="10.00" fill="#000000">reference: A_B_refseq_sample</text>
</g>
<!-- 17&#45;&gt;10 -->
<g id="edge22" class="edge">
<title>17&#45;&gt;10</title>
<path fill="none" stroke="#c0c0c0" stroke-width="2" d="M1254.9597,-539.747C1260.7304,-510.5327 1270.4106,-461.5268 1276.5343,-430.5256"/>
<polygon fill="#c0c0c0" stroke="#c0c0c0" stroke-width="2" points="1280.0354,-430.8616 1278.5397,-420.3729 1273.1681,-429.505 1280.0354,-430.8616"/>
</g>
<!-- 18 -->
<g id="node19" class="node">
<title>18</title>
<path fill="none" stroke="#56d8d0" stroke-width="2" d="M1138.9788,-504C1138.9788,-504 1009.3591,-504 1009.3591,-504 1003.3591,-504 997.3591,-498 997.3591,-492 997.3591,-492 997.3591,-468 997.3591,-468 997.3591,-462 1003.3591,-456 1009.3591,-456 1009.3591,-456 1138.9788,-456 1138.9788,-456 1144.9788,-456 1150.9788,-462 1150.9788,-468 1150.9788,-468 1150.9788,-492 1150.9788,-492 1150.9788,-498 1144.9788,-504 1138.9788,-504"/>
<text text-anchor="middle" x="1074.1689" y="-492" font-family="sans" font-size="10.00" fill="#000000">bwamem_map_se</text>
<text text-anchor="middle" x="1074.1689" y="-482" font-family="sans" font-size="10.00" fill="#000000">config: rabema</text>
<text text-anchor="middle" x="1074.1689" y="-472" font-family="sans" font-size="10.00" fill="#000000">reads: ABSim100K_1000</text>
<text text-anchor="middle" x="1074.1689" y="-462" font-family="sans" font-size="10.00" fill="#000000">reference: A_B_refseq_sample</text>
</g>
<!-- 18&#45;&gt;11 -->
<g id="edge23" class="edge">
<title>18&#45;&gt;11</title>
<path fill="none" stroke="#c0c0c0" stroke-width="2" d="M1077.7633,-455.8195C1083.9209,-414.3961 1096.4535,-330.0856 1102.9904,-286.1101"/>
<polygon fill="#c0c0c0" stroke="#c0c0c0" stroke-width="2" points="1106.4697,-286.5077 1104.4781,-276.1017 1099.5458,-285.4784 1106.4697,-286.5077"/>
</g>
<!-- 19 -->
<g id="node20" class="node">
<title>19</title>
<path fill="none" stroke="#56d8c1" stroke-width="2" d="M354.9788,-588C354.9788,-588 225.3591,-588 225.3591,-588 219.3591,-588 213.3591,-582 213.3591,-576 213.3591,-576 213.3591,-552 213.3591,-552 213.3591,-546 219.3591,-540 225.3591,-540 225.3591,-540 354.9788,-540 354.9788,-540 360.9788,-540 366.9788,-546 366.9788,-552 366.9788,-552 366.9788,-576 366.9788,-576 366.9788,-582 360.9788,-588 354.9788,-588"/>
<text text-anchor="middle" x="290.1689" y="-576" font-family="sans" font-size="10.00" fill="#000000">dream_yara_map_se</text>
<text text-anchor="middle" x="290.1689" y="-566" font-family="sans" font-size="10.00" fill="#000000">config: rabema</text>
<text text-anchor="middle" x="290.1689" y="-556" font-family="sans" font-size="10.00" fill="#000000">limit: 1000</text>
<text text-anchor="middle" x="290.1689" y="-546" font-family="sans" font-size="10.00" fill="#000000">reference: A_B_refseq_sample</text>
</g>
<!-- 19&#45;&gt;12 -->
<g id="edge24" class="edge">
<title>19&#45;&gt;12</title>
<path fill="none" stroke="#c0c0c0" stroke-width="2" d="M273.8505,-539.747C253.8507,-510.0224 220.065,-459.8088 199.2803,-428.9177"/>
<polygon fill="#c0c0c0" stroke="#c0c0c0" stroke-width="2" points="202.0173,-426.7158 193.5309,-420.3729 196.2095,-430.6235 202.0173,-426.7158"/>
</g>
<!-- 20 -->
<g id="node21" class="node">
<title>20</title>
<path fill="none" stroke="#56d882" stroke-width="2" d="M1495.9788,-588C1495.9788,-588 1366.3591,-588 1366.3591,-588 1360.3591,-588 1354.3591,-582 1354.3591,-576 1354.3591,-576 1354.3591,-552 1354.3591,-552 1354.3591,-546 1360.3591,-540 1366.3591,-540 1366.3591,-540 1495.9788,-540 1495.9788,-540 1501.9788,-540 1507.9788,-546 1507.9788,-552 1507.9788,-552 1507.9788,-576 1507.9788,-576 1507.9788,-582 1501.9788,-588 1495.9788,-588"/>
<text text-anchor="middle" x="1431.1689" y="-576" font-family="sans" font-size="10.00" fill="#000000">yara_map_se</text>
<text text-anchor="middle" x="1431.1689" y="-566" font-family="sans" font-size="10.00" fill="#000000">config: rabema</text>
<text text-anchor="middle" x="1431.1689" y="-556" font-family="sans" font-size="10.00" fill="#000000">limit: 1000</text>
<text text-anchor="middle" x="1431.1689" y="-546" font-family="sans" font-size="10.00" fill="#000000">reference: A_B_refseq_sample</text>
</g>
<!-- 20&#45;&gt;13 -->
<g id="edge25" class="edge">
<title>20&#45;&gt;13</title>
<path fill="none" stroke="#c0c0c0" stroke-width="2" d="M1436.0217,-539.8392C1444.7906,-496.1814 1463.2272,-404.3906 1472.5364,-358.0428"/>
<polygon fill="#c0c0c0" stroke="#c0c0c0" stroke-width="2" points="1475.999,-358.5769 1474.5368,-348.0835 1469.136,-357.1984 1475.999,-358.5769"/>
</g>
<!-- 21 -->
<g id="node22" class="node">
<title>21</title>
<path fill="none" stroke="#d89c56" stroke-width="2" d="M897.7466,-582C897.7466,-582 860.5913,-582 860.5913,-582 854.5913,-582 848.5913,-576 848.5913,-570 848.5913,-570 848.5913,-558 848.5913,-558 848.5913,-552 854.5913,-546 860.5913,-546 860.5913,-546 897.7466,-546 897.7466,-546 903.7466,-546 909.7466,-552 909.7466,-558 909.7466,-558 909.7466,-570 909.7466,-570 909.7466,-576 903.7466,-582 897.7466,-582"/>
<text text-anchor="middle" x="879.1689" y="-566" font-family="sans" font-size="10.00" fill="#000000">limit_fastq</text>
<text text-anchor="middle" x="879.1689" y="-556" font-family="sans" font-size="10.00" fill="#000000">limit: 1000</text>
</g>
<!-- 21&#45;&gt;14 -->
<g id="edge26" class="edge">
<title>21&#45;&gt;14</title>
<path fill="none" stroke="#c0c0c0" stroke-width="2" d="M848.4648,-549.7505C824.0599,-538.4245 789.1543,-522.2252 759.1238,-508.2885"/>
<polygon fill="#c0c0c0" stroke="#c0c0c0" stroke-width="2" points="760.5218,-505.0787 749.9776,-504.0438 757.575,-511.4283 760.5218,-505.0787"/>
</g>
<!-- 21&#45;&gt;18 -->
<g id="edge33" class="edge">
<title>21&#45;&gt;18</title>
<path fill="none" stroke="#c0c0c0" stroke-width="2" d="M910.0673,-550.69C936.5713,-539.2728 975.6528,-522.4377 1009.0284,-508.0606"/>
<polygon fill="#c0c0c0" stroke="#c0c0c0" stroke-width="2" points="1010.4761,-511.2479 1018.2755,-504.0772 1007.7067,-504.819 1010.4761,-511.2479"/>
</g>
<!-- 33 -->
<g id="node34" class="node">
<title>33</title>
<path fill="none" stroke="#56d873" stroke-width="2" d="M943.9788,-499C943.9788,-499 814.3591,-499 814.3591,-499 808.3591,-499 802.3591,-493 802.3591,-487 802.3591,-487 802.3591,-473 802.3591,-473 802.3591,-467 808.3591,-461 814.3591,-461 814.3591,-461 943.9788,-461 943.9788,-461 949.9788,-461 955.9788,-467 955.9788,-473 955.9788,-473 955.9788,-487 955.9788,-487 955.9788,-493 949.9788,-499 943.9788,-499"/>
<text text-anchor="middle" x="879.1689" y="-487" font-family="sans" font-size="10.00" fill="#000000">razers3_map_gold_unprep</text>
<text text-anchor="middle" x="879.1689" y="-477" font-family="sans" font-size="10.00" fill="#000000">reads: ABSim100K_1000</text>
<text text-anchor="middle" x="879.1689" y="-467" font-family="sans" font-size="10.00" fill="#000000">reference: A_B_refseq_sample</text>
</g>
<!-- 21&#45;&gt;33 -->
<g id="edge46" class="edge">
<title>21&#45;&gt;33</title>
<path fill="none" stroke="#c0c0c0" stroke-width="2" d="M879.1689,-545.7733C879.1689,-535.0997 879.1689,-521.3719 879.1689,-509.2213"/>
<polygon fill="#c0c0c0" stroke="#c0c0c0" stroke-width="2" points="882.669,-509.0658 879.1689,-499.0658 875.669,-509.0659 882.669,-509.0658"/>
</g>
<!-- 22 -->
<g id="node23" class="node">
<title>22</title>
<path fill="none" stroke="#5673d8" stroke-width="2" d="M765.4739,-582C765.4739,-582 630.864,-582 630.864,-582 624.864,-582 618.864,-576 618.864,-570 618.864,-570 618.864,-558 618.864,-558 618.864,-552 624.864,-546 630.864,-546 630.864,-546 765.4739,-546 765.4739,-546 771.4739,-546 777.4739,-552 777.4739,-558 777.4739,-558 777.4739,-570 777.4739,-570 777.4739,-576 771.4739,-582 765.4739,-582"/>
<text text-anchor="middle" x="698.1689" y="-566" font-family="sans" font-size="10.00" fill="#000000">bowtie2_index</text>
<text text-anchor="middle" x="698.1689" y="-556" font-family="sans" font-size="10.00" fill="#000000">prefix: data/A_B_refseq_sample</text>
</g>
<!-- 22&#45;&gt;14 -->
<g id="edge27" class="edge">
<title>22&#45;&gt;14</title>
<path fill="none" stroke="#c0c0c0" stroke-width="2" d="M698.1689,-545.7733C698.1689,-536.5586 698.1689,-525.0676 698.1689,-514.2802"/>
<polygon fill="#c0c0c0" stroke="#c0c0c0" stroke-width="2" points="701.669,-514.2504 698.1689,-504.2505 694.669,-514.2505 701.669,-514.2504"/>
</g>
<!-- 23 -->
<g id="node24" class="node">
<title>23</title>
<path fill="none" stroke="#56d863" stroke-width="2" d="M988.4757,-348C988.4757,-348 769.8622,-348 769.8622,-348 763.8622,-348 757.8622,-342 757.8622,-336 757.8622,-336 757.8622,-324 757.8622,-324 757.8622,-318 763.8622,-312 769.8622,-312 769.8622,-312 988.4757,-312 988.4757,-312 994.4757,-312 1000.4757,-318 1000.4757,-324 1000.4757,-324 1000.4757,-336 1000.4757,-336 1000.4757,-342 994.4757,-348 988.4757,-348"/>
<text text-anchor="middle" x="879.1689" y="-332" font-family="sans" font-size="10.00" fill="#000000">rabema_prepare</text>
<text text-anchor="middle" x="879.1689" y="-322" font-family="sans" font-size="10.00" fill="#000000">prefix: data/ABSim100K_1000.A_B_refseq_sample</text>
</g>
<!-- 23&#45;&gt;15 -->
<g id="edge28" class="edge">
<title>23&#45;&gt;15</title>
<path fill="none" stroke="#c0c0c0" stroke-width="2" d="M849.6449,-311.8314C834.6799,-302.6221 816.3304,-291.3301 800.3087,-281.4706"/>
<polygon fill="#c0c0c0" stroke="#c0c0c0" stroke-width="2" points="802.0345,-278.423 791.6835,-276.1628 798.3658,-284.3847 802.0345,-278.423"/>
</g>
<!-- 24 -->
<g id="node25" class="node">
<title>24</title>
<path fill="none" stroke="#56d88a" stroke-width="2" d="M917.1094,-662C917.1094,-662 841.2285,-662 841.2285,-662 835.2285,-662 829.2285,-656 829.2285,-650 829.2285,-650 829.2285,-636 829.2285,-636 829.2285,-630 835.2285,-624 841.2285,-624 841.2285,-624 917.1094,-624 917.1094,-624 923.1094,-624 929.1094,-630 929.1094,-636 929.1094,-636 929.1094,-650 929.1094,-650 929.1094,-656 923.1094,-662 917.1094,-662"/>
<text text-anchor="middle" x="879.1689" y="-650" font-family="sans" font-size="10.00" fill="#000000">reads_download</text>
<text text-anchor="middle" x="879.1689" y="-640" font-family="sans" font-size="10.00" fill="#000000">prefix: data</text>
<text text-anchor="middle" x="879.1689" y="-630" font-family="sans" font-size="10.00" fill="#000000">reads: ABSim100K</text>
</g>
<!-- 24&#45;&gt;16 -->
<g id="edge29" class="edge">
<title>24&#45;&gt;16</title>
<path fill="none" stroke="#c0c0c0" stroke-width="2" d="M829.0854,-638.707C773.7126,-632.6227 682.7469,-618.6146 610.1689,-588 564.1633,-568.5941 517.6186,-534.9776 486.8817,-510.3919"/>
<polygon fill="#c0c0c0" stroke="#c0c0c0" stroke-width="2" points="489.0056,-507.6082 479.032,-504.0338 484.5997,-513.0477 489.0056,-507.6082"/>
</g>
<!-- 24&#45;&gt;17 -->
<g id="edge31" class="edge">
<title>24&#45;&gt;17</title>
<path fill="none" stroke="#c0c0c0" stroke-width="2" d="M929.2501,-634.4278C985.9968,-624.4459 1081.133,-606.8973 1162.1689,-588 1162.6316,-587.8921 1163.0955,-587.7835 1163.5606,-587.6741"/>
<polygon fill="#c0c0c0" stroke="#c0c0c0" stroke-width="2" points="1164.5661,-591.0319 1173.4637,-585.2801 1162.9212,-584.2279 1164.5661,-591.0319"/>
</g>
<!-- 24&#45;&gt;19 -->
<g id="edge35" class="edge">
<title>24&#45;&gt;19</title>
<path fill="none" stroke="#c0c0c0" stroke-width="2" d="M829.0059,-639.3622C740.2483,-632.4779 549.9089,-615.7007 391.1689,-588 386.4778,-587.1814 381.6792,-586.2761 376.8451,-585.3107"/>
<polygon fill="#c0c0c0" stroke="#c0c0c0" stroke-width="2" points="377.3977,-581.851 366.8961,-583.2534 375.9801,-588.706 377.3977,-581.851"/>
</g>
<!-- 24&#45;&gt;20 -->
<g id="edge38" class="edge">
<title>24&#45;&gt;20</title>
<path fill="none" stroke="#c0c0c0" stroke-width="2" d="M929.1888,-639.0852C1013.5899,-632.0105 1189.4404,-615.2483 1336.1689,-588 1338.8594,-587.5004 1341.5868,-586.9688 1344.3359,-586.4112"/>
<polygon fill="#c0c0c0" stroke="#c0c0c0" stroke-width="2" points="1345.2994,-589.7849 1354.3576,-584.2894 1343.8495,-582.9367 1345.2994,-589.7849"/>
</g>
<!-- 24&#45;&gt;21 -->
<g id="edge40" class="edge">
<title>24&#45;&gt;21</title>
<path fill="none" stroke="#c0c0c0" stroke-width="2" d="M879.1689,-623.8763C879.1689,-614.3552 879.1689,-602.6591 879.1689,-592.1384"/>
<polygon fill="#c0c0c0" stroke="#c0c0c0" stroke-width="2" points="882.669,-592.1335 879.1689,-582.1335 875.669,-592.1335 882.669,-592.1335"/>
</g>
<!-- 25 -->
<g id="node26" class="node">
<title>25</title>
<path fill="none" stroke="#56d0d8" stroke-width="2" d="M490.3832,-582C490.3832,-582 411.9547,-582 411.9547,-582 405.9547,-582 399.9547,-576 399.9547,-570 399.9547,-570 399.9547,-558 399.9547,-558 399.9547,-552 405.9547,-546 411.9547,-546 411.9547,-546 490.3832,-546 490.3832,-546 496.3832,-546 502.3832,-552 502.3832,-558 502.3832,-558 502.3832,-570 502.3832,-570 502.3832,-576 496.3832,-582 490.3832,-582"/>
<text text-anchor="middle" x="451.1689" y="-561" font-family="sans" font-size="10.00" fill="#000000">dist_yara_index_fm</text>
</g>
<!-- 25&#45;&gt;16 -->
<g id="edge30" class="edge">
<title>25&#45;&gt;16</title>
<path fill="none" stroke="#c0c0c0" stroke-width="2" d="M451.1689,-545.7733C451.1689,-536.5586 451.1689,-525.0676 451.1689,-514.2802"/>
<polygon fill="#c0c0c0" stroke="#c0c0c0" stroke-width="2" points="454.669,-514.2504 451.1689,-504.2505 447.669,-514.2505 454.669,-514.2504"/>
</g>
<!-- 26 -->
<g id="node27" class="node">
<title>26</title>
<path fill="none" stroke="#c6d856" stroke-width="2" d="M1317.4739,-661C1317.4739,-661 1182.864,-661 1182.864,-661 1176.864,-661 1170.864,-655 1170.864,-649 1170.864,-649 1170.864,-637 1170.864,-637 1170.864,-631 1176.864,-625 1182.864,-625 1182.864,-625 1317.4739,-625 1317.4739,-625 1323.4739,-625 1329.4739,-631 1329.4739,-637 1329.4739,-637 1329.4739,-649 1329.4739,-649 1329.4739,-655 1323.4739,-661 1317.4739,-661"/>
<text text-anchor="middle" x="1250.1689" y="-645" font-family="sans" font-size="10.00" fill="#000000">gem_index</text>
<text text-anchor="middle" x="1250.1689" y="-635" font-family="sans" font-size="10.00" fill="#000000">prefix: data/A_B_refseq_sample</text>
</g>
<!-- 26&#45;&gt;17 -->
<g id="edge32" class="edge">
<title>26&#45;&gt;17</title>
<path fill="none" stroke="#c0c0c0" stroke-width="2" d="M1250.1689,-624.6772C1250.1689,-616.7953 1250.1689,-607.3162 1250.1689,-598.2178"/>
<polygon fill="#c0c0c0" stroke="#c0c0c0" stroke-width="2" points="1253.669,-598.2125 1250.1689,-588.2126 1246.669,-598.2126 1253.669,-598.2125"/>
</g>
<!-- 27 -->
<g id="node28" class="node">
<title>27</title>
<path fill="none" stroke="#5663d8" stroke-width="2" d="M1141.4739,-582C1141.4739,-582 1006.864,-582 1006.864,-582 1000.864,-582 994.864,-576 994.864,-570 994.864,-570 994.864,-558 994.864,-558 994.864,-552 1000.864,-546 1006.864,-546 1006.864,-546 1141.4739,-546 1141.4739,-546 1147.4739,-546 1153.4739,-552 1153.4739,-558 1153.4739,-558 1153.4739,-570 1153.4739,-570 1153.4739,-576 1147.4739,-582 1141.4739,-582"/>
<text text-anchor="middle" x="1074.1689" y="-566" font-family="sans" font-size="10.00" fill="#000000">bwa_index</text>
<text text-anchor="middle" x="1074.1689" y="-556" font-family="sans" font-size="10.00" fill="#000000">prefix: data/A_B_refseq_sample</text>
</g>
<!-- 27&#45;&gt;18 -->
<g id="edge34" class="edge">
<title>27&#45;&gt;18</title>
<path fill="none" stroke="#c0c0c0" stroke-width="2" d="M1074.1689,-545.7733C1074.1689,-536.5586 1074.1689,-525.0676 1074.1689,-514.2802"/>
<polygon fill="#c0c0c0" stroke="#c0c0c0" stroke-width="2" points="1077.669,-514.2504 1074.1689,-504.2505 1070.669,-514.2505 1077.669,-514.2504"/>
</g>
<!-- 28 -->
<g id="node29" class="node">
<title>28</title>
<path fill="none" stroke="#56d8a9" stroke-width="2" d="M518.4739,-661C518.4739,-661 383.864,-661 383.864,-661 377.864,-661 371.864,-655 371.864,-649 371.864,-649 371.864,-637 371.864,-637 371.864,-631 377.864,-625 383.864,-625 383.864,-625 518.4739,-625 518.4739,-625 524.4739,-625 530.4739,-631 530.4739,-637 530.4739,-637 530.4739,-649 530.4739,-649 530.4739,-655 524.4739,-661 518.4739,-661"/>
<text text-anchor="middle" x="451.1689" y="-645" font-family="sans" font-size="10.00" fill="#000000">dream_yara_index_fm</text>
<text text-anchor="middle" x="451.1689" y="-635" font-family="sans" font-size="10.00" fill="#000000">prefix: data/A_B_refseq_sample</text>
</g>
<!-- 28&#45;&gt;19 -->
<g id="edge36" class="edge">
<title>28&#45;&gt;19</title>
<path fill="none" stroke="#c0c0c0" stroke-width="2" d="M414.2323,-624.8758C394.7365,-615.3095 370.3624,-603.3496 348.3914,-592.5688"/>
<polygon fill="#c0c0c0" stroke="#c0c0c0" stroke-width="2" points="349.663,-589.2941 339.1437,-588.0311 346.5794,-595.5784 349.663,-589.2941"/>
</g>
<!-- 28&#45;&gt;25 -->
<g id="edge42" class="edge">
<title>28&#45;&gt;25</title>
<path fill="none" stroke="#c0c0c0" stroke-width="2" d="M451.1689,-624.6772C451.1689,-615.1053 451.1689,-603.1777 451.1689,-592.4371"/>
<polygon fill="#c0c0c0" stroke="#c0c0c0" stroke-width="2" points="454.669,-592.2234 451.1689,-582.2234 447.669,-592.2234 454.669,-592.2234"/>
</g>
<!-- 29 -->
<g id="node30" class="node">
<title>29</title>
<path fill="none" stroke="#61d856" stroke-width="2" d="M342.4739,-662C342.4739,-662 207.864,-662 207.864,-662 201.864,-662 195.864,-656 195.864,-650 195.864,-650 195.864,-636 195.864,-636 195.864,-630 201.864,-624 207.864,-624 207.864,-624 342.4739,-624 342.4739,-624 348.4739,-624 354.4739,-630 354.4739,-636 354.4739,-636 354.4739,-650 354.4739,-650 354.4739,-656 348.4739,-662 342.4739,-662"/>
<text text-anchor="middle" x="275.1689" y="-650" font-family="sans" font-size="10.00" fill="#000000">dream_yara_index_ibf</text>
<text text-anchor="middle" x="275.1689" y="-640" font-family="sans" font-size="10.00" fill="#000000">indexer: dyara</text>
<text text-anchor="middle" x="275.1689" y="-630" font-family="sans" font-size="10.00" fill="#000000">prefix: data/A_B_refseq_sample</text>
</g>
<!-- 29&#45;&gt;19 -->
<g id="edge37" class="edge">
<title>29&#45;&gt;19</title>
<path fill="none" stroke="#c0c0c0" stroke-width="2" d="M278.8,-623.8763C280.2708,-616.1304 282.0148,-606.945 283.6897,-598.1241"/>
<polygon fill="#c0c0c0" stroke="#c0c0c0" stroke-width="2" points="287.1766,-598.5219 285.6035,-588.0445 280.2995,-597.2161 287.1766,-598.5219"/>
</g>
<!-- 30 -->
<g id="node31" class="node">
<title>30</title>
<path fill="none" stroke="#d8b456" stroke-width="2" d="M1498.4739,-661C1498.4739,-661 1363.864,-661 1363.864,-661 1357.864,-661 1351.864,-655 1351.864,-649 1351.864,-649 1351.864,-637 1351.864,-637 1351.864,-631 1357.864,-625 1363.864,-625 1363.864,-625 1498.4739,-625 1498.4739,-625 1504.4739,-625 1510.4739,-631 1510.4739,-637 1510.4739,-637 1510.4739,-649 1510.4739,-649 1510.4739,-655 1504.4739,-661 1498.4739,-661"/>
<text text-anchor="middle" x="1431.1689" y="-645" font-family="sans" font-size="10.00" fill="#000000">yara_index</text>
<text text-anchor="middle" x="1431.1689" y="-635" font-family="sans" font-size="10.00" fill="#000000">prefix: data/A_B_refseq_sample</text>
</g>
<!-- 30&#45;&gt;20 -->
<g id="edge39" class="edge">
<title>30&#45;&gt;20</title>
<path fill="none" stroke="#c0c0c0" stroke-width="2" d="M1431.1689,-624.6772C1431.1689,-616.7953 1431.1689,-607.3162 1431.1689,-598.2178"/>
<polygon fill="#c0c0c0" stroke="#c0c0c0" stroke-width="2" points="1434.669,-598.2125 1431.1689,-588.2126 1427.669,-598.2126 1434.669,-598.2125"/>
</g>
<!-- 31 -->
<g id="node32" class="node">
<title>31</title>
<path fill="none" stroke="#d87d56" stroke-width="2" d="M1037.2656,-420C1037.2656,-420 721.0723,-420 721.0723,-420 715.0723,-420 709.0723,-414 709.0723,-408 709.0723,-408 709.0723,-396 709.0723,-396 709.0723,-390 715.0723,-384 721.0723,-384 721.0723,-384 1037.2656,-384 1037.2656,-384 1043.2656,-384 1049.2656,-390 1049.2656,-396 1049.2656,-396 1049.2656,-408 1049.2656,-408 1049.2656,-414 1043.2656,-420 1037.2656,-420"/>
<text text-anchor="middle" x="879.1689" y="-404" font-family="sans" font-size="10.00" fill="#000000">bam_sort_name</text>
<text text-anchor="middle" x="879.1689" y="-394" font-family="sans" font-size="10.00" fill="#000000">prefix: data/ABSim100K_1000.A_B_refseq_sample.razers3_gold_unprep</text>
</g>
<!-- 31&#45;&gt;23 -->
<g id="edge41" class="edge">
<title>31&#45;&gt;23</title>
<path fill="none" stroke="#c0c0c0" stroke-width="2" d="M879.1689,-383.8314C879.1689,-376.131 879.1689,-366.9743 879.1689,-358.4166"/>
<polygon fill="#c0c0c0" stroke="#c0c0c0" stroke-width="2" points="882.669,-358.4132 879.1689,-348.4133 875.669,-358.4133 882.669,-358.4132"/>
</g>
<!-- 32 -->
<g id="node33" class="node">
<title>32</title>
<path fill="none" stroke="#56a9d8" stroke-width="2" stroke-dasharray="5,2" d="M427.9788,-756C427.9788,-756 298.3591,-756 298.3591,-756 292.3591,-756 286.3591,-750 286.3591,-744 286.3591,-744 286.3591,-710 286.3591,-710 286.3591,-704 292.3591,-698 298.3591,-698 298.3591,-698 427.9788,-698 427.9788,-698 433.9788,-698 439.9788,-704 439.9788,-710 439.9788,-710 439.9788,-744 439.9788,-744 439.9788,-750 433.9788,-756 427.9788,-756"/>
<text text-anchor="middle" x="363.1689" y="-744" font-family="sans" font-size="10.00" fill="#000000">refs_download_bins</text>
<text text-anchor="middle" x="363.1689" y="-734" font-family="sans" font-size="10.00" fill="#000000">bin_size: 1024</text>
<text text-anchor="middle" x="363.1689" y="-724" font-family="sans" font-size="10.00" fill="#000000">meth: taxo</text>
<text text-anchor="middle" x="363.1689" y="-714" font-family="sans" font-size="10.00" fill="#000000">prefix: data</text>
<text text-anchor="middle" x="363.1689" y="-704" font-family="sans" font-size="10.00" fill="#000000">reference: A_B_refseq_sample</text>
</g>
<!-- 32&#45;&gt;28 -->
<g id="edge43" class="edge">
<title>32&#45;&gt;28</title>
<path fill="none" stroke="#c0c0c0" stroke-width="2" d="M393.9471,-697.6209C403.959,-688.0641 414.9777,-677.5462 424.6504,-668.3131"/>
<polygon fill="#c0c0c0" stroke="#c0c0c0" stroke-width="2" points="427.2573,-670.6633 432.0743,-661.2267 422.424,-665.5998 427.2573,-670.6633"/>
</g>
<!-- 32&#45;&gt;29 -->
<g id="edge44" class="edge">
<title>32&#45;&gt;29</title>
<path fill="none" stroke="#c0c0c0" stroke-width="2" d="M332.3908,-697.6209C322.6918,-688.3627 312.0479,-678.2026 302.5981,-669.1824"/>
<polygon fill="#c0c0c0" stroke="#c0c0c0" stroke-width="2" points="304.9668,-666.6048 295.3165,-662.2318 300.1334,-671.6683 304.9668,-666.6048"/>
</g>
<!-- 33&#45;&gt;31 -->
<g id="edge45" class="edge">
<title>33&#45;&gt;31</title>
<path fill="none" stroke="#c0c0c0" stroke-width="2" d="M879.1689,-460.7191C879.1689,-451.5449 879.1689,-440.3951 879.1689,-430.2863"/>
<polygon fill="#c0c0c0" stroke="#c0c0c0" stroke-width="2" points="882.669,-430.2552 879.1689,-420.2552 875.669,-430.2553 882.669,-430.2552"/>
</g>
</g>
</svg>
